<svg class="site-footer__logo" width="150" height="27" viewBox="0 0 150 27" fill="none" xmlns="http://www.w3.org/2000/svg">
<path d="M111.805 4.57234C111.242 4.99537 110.544 5.19953 109.842 5.1467L104.262 5.1467L104.262 23.449C104.332 24.2919 104.08 25.1302 103.556 25.7947C103.326 26.0467 103.043 26.2458 102.729 26.3783C102.414 26.5108 102.074 26.5735 101.733 26.5621C101.386 26.5727 101.042 26.5087 100.722 26.3747C100.403 26.2406 100.116 26.0395 99.8808 25.785C99.354 25.1252 99.0981 24.2901 99.1651 23.449L99.1651 5.1467L93.5899 5.1467C92.8965 5.19774 92.2084 4.99341 91.6557 4.57234C91.4437 4.38281 91.2755 4.14953 91.1628 3.88867C91.0501 3.62781 90.9955 3.34562 91.0029 3.06162C90.9895 2.76981 91.0425 2.47876 91.1581 2.21039C91.2737 1.94202 91.4488 1.70333 91.6702 1.5123C92.2252 1.09667 92.9124 0.89604 93.6044 0.947593L109.856 0.947593C110.564 0.891445 111.267 1.09958 111.829 1.53161C112.042 1.72415 112.21 1.96095 112.321 2.22532C112.432 2.48968 112.484 2.77517 112.472 3.06163C112.483 3.34749 112.43 3.63218 112.317 3.89512C112.204 4.15806 112.034 4.39267 111.819 4.58199L111.805 4.57234ZM149.367 16.576C149.579 16.7804 149.747 17.0266 149.859 17.2991C149.972 17.5716 150.026 17.8645 150.019 18.1591C149.998 19.0568 149.797 19.9412 149.429 20.7606C148.421 23.0045 146.585 24.7744 144.304 25.703C142.839 26.2919 141.27 26.5792 139.691 26.5476C138.47 26.5579 137.252 26.43 136.059 26.1663C135.012 25.9341 134.008 25.5365 133.086 24.9886C132.159 24.4251 131.331 23.7143 130.634 22.8843C129.956 22.0753 129.384 21.1832 128.932 20.2297C128.451 19.2313 128.096 18.1776 127.873 17.0924C127.631 15.9287 127.513 14.7429 127.52 13.5545C127.491 11.7003 127.791 9.85555 128.405 8.10538C128.953 6.5709 129.818 5.16834 130.944 3.98833C132.033 2.85672 133.352 1.96986 134.812 1.38681C136.319 0.785442 137.928 0.482176 139.551 0.493896C141.445 0.461698 143.319 0.885528 145.015 1.7295C146.466 2.42012 147.725 3.45401 148.685 4.74127C149.447 5.70986 149.891 6.88981 149.957 8.11986C149.96 8.69549 149.737 9.24959 149.338 9.66435C149.151 9.8776 148.921 10.048 148.662 10.1638C148.403 10.2796 148.122 10.3381 147.839 10.3352C147.311 10.3661 146.792 10.1933 146.388 9.85259C145.945 9.37822 145.577 8.83957 145.295 8.255C144.748 7.14598 143.942 6.18429 142.945 5.45078C141.956 4.80788 140.793 4.48433 139.614 4.52407C138.646 4.49098 137.685 4.69081 136.812 5.10665C135.938 5.52249 135.177 6.14214 134.594 6.91322C133.347 8.50598 132.723 10.768 132.723 13.6994C132.671 15.3677 132.952 17.0297 133.55 18.5887C134.014 19.7719 134.833 20.7832 135.895 21.4846C136.958 22.143 138.189 22.4784 139.439 22.4499C140.767 22.4931 142.073 22.1108 143.168 21.3591C144.243 20.5502 145.045 19.4317 145.464 18.1542C145.641 17.5715 145.916 17.0231 146.277 16.5325C146.466 16.3121 146.705 16.1401 146.974 16.031C147.243 15.9218 147.535 15.8786 147.824 15.9051C148.113 15.9091 148.398 15.9705 148.663 16.0857C148.928 16.2009 149.167 16.3675 149.367 16.576V16.576ZM88.2129 4.31653C87.6957 4.71702 87.0471 4.90985 86.3947 4.8571L74.8574 4.8571L74.8574 11.0447L85.4663 11.0447C86.0938 10.995 86.7169 11.1828 87.2119 11.5708C87.4034 11.7447 87.5542 11.9585 87.6536 12.1971C87.7531 12.4356 87.7987 12.6931 87.7873 12.9512C87.7973 13.2112 87.752 13.4703 87.6545 13.7115C87.557 13.9528 87.4095 14.1707 87.2216 14.3509C86.7293 14.7527 86.1001 14.9482 85.4663 14.8963L74.8574 14.8963L74.8574 22.0589L86.7719 22.0589C87.427 22.0102 88.0763 22.2102 88.59 22.6188C88.7925 22.8084 88.9518 23.0394 89.0569 23.2959C89.162 23.5524 89.2106 23.8285 89.1993 24.1054C89.2082 24.3763 89.1583 24.6459 89.0532 24.8958C88.948 25.1457 88.79 25.37 88.59 25.5534C88.0763 25.962 87.427 26.162 86.7719 26.1132L72.8797 26.1132C71.7676 26.1132 70.9617 25.8671 70.462 25.3748C69.9623 24.8825 69.7189 24.0861 69.7318 22.9856L69.7318 4.06554C69.7074 3.45017 69.8197 2.83702 70.0606 2.27006C70.265 1.81894 70.628 1.4583 71.0809 1.25649C71.6464 1.0255 72.2546 0.916928 72.8652 0.937945L86.3609 0.937945C87.0133 0.885194 87.6619 1.07803 88.179 1.47852C88.3678 1.6652 88.5176 1.88735 88.6198 2.13215C88.7221 2.37695 88.7747 2.63954 88.7747 2.90476C88.7747 3.16998 88.7221 3.43258 88.6198 3.67738C88.5176 3.92217 88.3678 4.14433 88.179 4.33101L88.2129 4.31653ZM4.4003 1.27097C4.16135 1.01876 3.87128 0.820286 3.54943 0.688787C3.22758 0.557289 2.88135 0.495789 2.53381 0.508381C2.18698 0.491259 1.8407 0.551707 1.52029 0.685318C1.19987 0.818929 0.913406 1.02232 0.681846 1.28062C0.179374 1.94601 -0.0630089 2.77134 4.82497e-05 3.60219L4.79326e-05 22.334C4.7919e-05 23.1353 4.08267e-05 23.7482 0.0532306 24.173C0.0770515 24.5598 0.175571 24.9384 0.34336 25.2879C0.562581 25.677 0.885633 25.9978 1.27659 26.2146C1.65682 26.441 2.09109 26.561 2.53381 26.5621C2.88034 26.5746 3.22551 26.5125 3.54589 26.3801C3.86627 26.2477 4.15435 26.048 4.39062 25.7947C4.92592 25.1352 5.18572 24.2949 5.11593 23.449L5.11593 18.2411L9.29858 14.2399L15.3429 23.5166C15.5846 23.9316 15.8603 24.3902 16.1697 24.8921C16.4561 25.3734 16.8438 25.7867 17.3061 26.1036C17.8247 26.4287 18.4301 26.5887 19.042 26.5621C19.7002 26.5979 20.3461 26.3743 20.8408 25.9395C21.048 25.759 21.2142 25.5365 21.3285 25.2868C21.4427 25.0371 21.5023 24.766 21.5032 24.4915C21.4953 23.9519 21.3664 23.4208 21.1261 22.9374C20.8017 22.2833 20.4215 21.6584 19.9897 21.0695L12.8285 10.8275L19.042 4.94881C19.3765 4.6784 19.6518 4.34219 19.8506 3.96106C20.0494 3.57994 20.1675 3.16206 20.1976 2.73342C20.2022 2.4379 20.1438 2.14479 20.0263 1.87352C19.9087 1.60225 19.7347 1.35902 19.5159 1.15996C19.0307 0.720179 18.3912 0.489463 17.7364 0.518029C17.259 0.494785 16.7861 0.619547 16.3825 0.875196C15.9391 1.2095 15.5279 1.58437 15.1543 1.99495L5.11593 12.4444L5.11593 3.61186C5.1807 2.77248 4.92506 1.93969 4.4003 1.28062L4.4003 1.27097ZM49.5584 2.32316C49.3414 1.97602 49.0885 1.65249 48.8041 1.35785C48.5425 1.08308 48.2251 0.867293 47.8732 0.724949C47.5213 0.582604 47.1429 0.516989 46.7635 0.532508C46.1832 0.530492 45.615 0.698293 45.1291 1.01516C44.645 1.31521 44.2652 1.75672 44.0412 2.27973C43.8345 2.90166 43.7411 3.55554 43.7656 4.21035L43.7655 23.6469C43.7104 24.4283 43.9444 25.2029 44.4232 25.8236C44.6455 26.0584 44.9135 26.2454 45.2107 26.3731C45.508 26.5009 45.8282 26.5668 46.1519 26.5668C46.4755 26.5668 46.7957 26.5009 47.0929 26.3731C47.3902 26.2454 47.6582 26.0584 47.8805 25.8236C48.3709 25.2045 48.6108 24.4243 48.5526 23.6372L48.5526 8.87761L58.1413 23.5552C58.4185 23.9574 58.6941 24.3483 58.9682 24.728C59.2295 25.0966 59.5312 25.4349 59.8676 25.7368C60.1678 26.0093 60.5174 26.2222 60.8975 26.3642C61.2974 26.5005 61.7177 26.5674 62.1402 26.5621C63.9712 26.5621 64.8883 25.4552 64.8916 23.2414L64.8916 3.42845C64.9509 2.64506 64.7242 1.86671 64.2533 1.23719C64.0373 0.993407 63.7691 0.801303 63.4686 0.675134C63.1681 0.548965 62.843 0.491972 62.5174 0.508382C62.1977 0.494338 61.879 0.552589 61.5851 0.678794C61.2912 0.804999 61.0297 0.99589 60.8201 1.23719C60.3551 1.86919 60.1321 2.64653 60.1915 3.42845L60.1915 18.4149L50.3611 3.54428C50.0855 3.10989 49.8195 2.69481 49.5584 2.2942" fill="black"></path>
<path d="M111.389 24.8722C111.505 25.193 111.689 25.4845 111.93 25.7263C112.171 25.9682 112.461 26.1544 112.782 26.2719C113.099 26.4175 113.444 26.4929 113.792 26.4929C114.141 26.4929 114.486 26.4175 114.803 26.2719C115.537 25.8527 116.088 25.1742 116.346 24.3703L123.792 5.95696C124.166 5.20825 124.242 4.34605 124.005 3.54369C123.879 3.21897 123.684 2.92531 123.434 2.68287C123.183 2.44042 122.883 2.25495 122.554 2.13916C122.241 1.99992 121.902 1.93079 121.559 1.93663C121.217 1.94246 120.88 2.02313 120.572 2.17295C119.845 2.58948 119.302 3.26291 119.049 4.06013L111.602 22.4445C111.235 23.195 111.159 24.0547 111.389 24.8577L111.389 24.8722ZM25.9423 24.6068C25.7119 23.8037 25.7877 22.944 26.1551 22.1935L33.6065 3.78984C33.8629 2.99442 34.4056 2.32206 35.1297 1.90266C35.438 1.75411 35.7749 1.67415 36.1172 1.66831C36.4595 1.66248 36.799 1.73091 37.1122 1.86887C37.4406 1.98714 37.7399 2.17406 37.99 2.41711C38.2402 2.66017 38.4355 2.95376 38.5628 3.27823C38.7999 4.0806 38.7238 4.94279 38.3501 5.69151L30.8986 24.1096C30.6395 24.9118 30.0894 25.5884 29.3561 26.0065C29.0392 26.152 28.6944 26.2274 28.3455 26.2274C27.9966 26.2274 27.6519 26.152 27.3349 26.0065C27.0146 25.8873 26.7241 25.6999 26.4836 25.4574C26.2431 25.2148 26.0584 24.9229 25.9423 24.6019" fill="#54C0E8"></path>
</svg>